<?xml version="1.0" encoding="utf-8"?>
<!-- Generator: Adobe Illustrator 19.0.0, SVG Export Plug-In . SVG Version: 6.00 Build 0)  -->
<svg version="1.1" id="Layer_1" xmlns="http://www.w3.org/2000/svg" xmlns:xlink="http://www.w3.org/1999/xlink" x="0px" y="0px"
	 viewBox="0 0 1318 677.9" style="enable-background:new 0 0 1318 677.9;" xml:space="preserve">
<style type="text/css">
	.st0{fill:#4EB8A9;}
	.st1{fill:#E84E29;}
	.st2{fill:none;}
	.st3{font-family:'Metric-Bold';}
	.st4{font-size:45px;}
	.st5{letter-spacing:2;}
</style>
<path id="XMLID_1742_" class="st0" d="M199.1,365.8c-69.6,0-117.3-46.7-117.3-115.3s47.7-115.4,117.3-115.4
	c70.1,0,117.3,46.7,117.3,115.4S269.2,365.8,199.1,365.8 M199.1,210.5c-16.5,0-26.3,16.1-26.3,39.9c0,23.8,9.7,39.9,26.3,39.9
	c17,0,26.8-16.1,26.8-39.9C225.8,226.6,216.1,210.5,199.1,210.5"/>
<path id="XMLID_1739_" class="st0" d="M429.3,435.4h-92.5V140h92.5v17c10.2-11.2,31.6-21.9,53.5-21.9c62.8,0,95.9,51.6,95.9,115.4
	c0,63.8-33.1,115.3-95.9,115.3c-21.9,0-43.3-10.7-53.5-21.9V435.4z M429.3,272.3c3.9,9.2,14.1,15.6,25.8,15.6
	c19.5,0,31.2-16.1,31.2-37.5c0-21.4-11.7-37.5-31.2-37.5c-12.7,0-21.9,6.3-25.8,15.6V272.3z"/>
<rect id="XMLID_763_" x="599.1" y="44.6" class="st1" width="92.5" height="316.4"/>
<path id="XMLID_1735_" class="st1" d="M841.9,232.4c0-12.7-13.6-23.8-45.3-23.8c-19,0-42.3,4.9-59.4,14.1v-71.1
	c20-9.2,50.6-16.5,83.7-16.5c69.6,0,110,31.2,110,94.4v131.4h-89.1v-10.7c-7.3,7.3-27.7,14.6-51.1,14.6c-42.3,0-79.3-23.4-79.3-70.6
	c0-43.3,37-69.6,84.2-69.6c17.5,0,37.5,5.4,46.2,11.7V232.4z M841.9,287.4c-4.4-6.3-12.7-10.7-23.4-10.7c-10.7,0-21.4,4.9-21.4,15.6
	c0,10.7,10.7,15.6,21.4,15.6c10.7,0,19-4.4,23.4-10.7V287.4z"/>
<path id="XMLID_1732_" class="st1" d="M1052.6,360.9h-92.5V44.6h92.5V157c10.2-11.2,31.6-21.9,53.5-21.9
	c62.8,0,95.9,51.6,95.9,115.4c0,63.8-33.1,115.3-95.9,115.3c-21.9,0-43.3-10.7-53.5-21.9V360.9z M1052.6,272.3
	c3.9,9.2,13.1,15.6,25.8,15.6c19.5,0,31.2-16.1,31.2-37.5c0-21.4-11.7-37.5-31.2-37.5c-11.7,0-21.9,6.3-25.8,15.6V272.3z"/>
<rect id="XMLID_40_" x="445.1" y="404.3" class="st2" width="1215.1" height="46.5"/>
<text id="XMLID_41_" transform="matrix(1 0 0 1 445.0775 433.5091)" class="st0 st3 st4 st5">LABORATÓRIO DE OPORTUNIDADES</text>
</svg>
