<svg id="Capa_1" data-name="Capa 1" xmlns="http://www.w3.org/2000/svg" xmlns:xlink="http://www.w3.org/1999/xlink" viewBox="0 0 1125 2152"><defs><style>.cls-1,.cls-12{fill:none;}.cls-2{clip-path:url(#clip-path);}.cls-3{fill:#4eb8a9;}.cls-3a{fill:transparent;}.cls-4,.cls-7{fill:#2d5066;}.cls-12,.cls-4,.cls-5,.cls-6{fill-rule:evenodd;}.cls-5{fill:#e6e6e6;}.cls-6{fill:#ebeff0;}.cls-8{fill:#e84e29;}.cls-9{fill:#f8b632;}.cls-10{fill:#fff;}.cls-11{clip-path:url(#clip-path-2);}.cls-13{fill:gray;}.cls-14{fill:#97d1d3;}.cls-15{fill:#f6f5f6;}.cls-16{fill:#ebebeb;}.cls-17{fill:#421e0f;}.cls-18{fill:#c0967a;}.cls-19{fill:#cdccca;}.cls-20{fill:#e1e2e4;}.cls-21{fill:#a98771;}.cls-22{fill:#dbdbdb;}.cls-23{fill:#b3b4b6;}.cls-24{fill:#58250f;}.cls-25{fill:#e8b601;}</style><clipPath id="clip-path"><rect class="cls-1" x="-141.5" y="-1552.5" width="1650.5" height="1276.39"/></clipPath><clipPath id="clip-path-2"><circle id="_Trazado_de_recorte_" data-name="&lt;Trazado de recorte&gt;" class="cls-1" cx="385.38" cy="349.01" r="145"/></clipPath></defs><title>Mesa de trabajo 7</title><g class="cls-2"><image width="900" height="1600" transform="translate(-140.58 -2094.41) scale(1.83)" xlink:href="../../wireframes_draft/client/3.unloggedCLient_PopUp.jpg"/></g><rect class="cls-3a" x="-0.37" y="6" width="1125.37" height="2170"/><g id="_Grupo_" data-name="&lt;Grupo&gt;"><path id="_Trazado_" data-name="&lt;Trazado&gt;" class="cls-4" d="M219.57,144.34l686,.3A49.45,49.45,0,0,1,954.9,194l-.18,414.63a49.45,49.45,0,0,1-49.33,49.29l-686.06-.3A49.46,49.46,0,0,1,170,608.25l.18-414.61A49.48,49.48,0,0,1,219.57,144.34Z"/><path id="_Trazado_2" data-name="&lt;Trazado&gt;" class="cls-5" d="M223.11,178.69l678.94.3a22.13,22.13,0,0,1,22.11,22.16L924,600.4a22.17,22.17,0,0,1-22.15,22.13l-678.94-.3a22.16,22.16,0,0,1-22.15-22.15l.18-399.25A22.15,22.15,0,0,1,223.11,178.69Z"/><path id="_Trazado_3" data-name="&lt;Trazado&gt;" class="cls-5" d="M564.9,178.86l337.15.14a22.13,22.13,0,0,1,22.11,22.16L924,600.4a22.17,22.17,0,0,1-22.15,22.13l-337.16-.14Z"/><path id="_Trazado_4" data-name="&lt;Trazado&gt;" class="cls-6" d="M571.31,632.07a9.37,9.37,0,1,0,2.74,6.62A9.31,9.31,0,0,0,571.31,632.07Z"/></g><rect id="_Rectángulo_" data-name="&lt;Rectángulo&gt;" class="cls-7" x="252.97" y="501.64" width="226.18" height="18.24"/><rect id="_Rectángulo_2" data-name="&lt;Rectángulo&gt;" class="cls-7" x="252.97" y="537.13" width="226.18" height="18.24"/><g id="_Grupo_2" data-name="&lt;Grupo&gt;"><path id="_Trazado_compuesto_" data-name="&lt;Trazado compuesto&gt;" class="cls-3" d="M609.42,288.85a37,37,0,1,1,37-37A37,37,0,0,1,609.42,288.85Zm0-62.9a25.94,25.94,0,1,0,25.94,25.94A26,26,0,0,0,609.42,225.94Z"/></g><g id="_Grupo_3" data-name="&lt;Grupo&gt;"><path id="_Trazado_5" data-name="&lt;Trazado&gt;" class="cls-3" d="M635.26,278l-7.8-7.8a25.93,25.93,0,1,0-36.68-36.68l-7.8-7.8A37,37,0,1,1,635.26,278Z"/></g><g id="_Grupo_4" data-name="&lt;Grupo&gt;"><path id="_Trazado_compuesto_2" data-name="&lt;Trazado compuesto&gt;" class="cls-8" d="M725,288.85a37,37,0,1,1,37-37A37,37,0,0,1,725,288.85Zm0-62.9A25.94,25.94,0,1,0,751,251.89,26,26,0,0,0,725,225.94Z"/></g><g id="_Grupo_5" data-name="&lt;Grupo&gt;"><path id="_Trazado_6" data-name="&lt;Trazado&gt;" class="cls-8" d="M725,288.85a37,37,0,1,1,0-73.93v11a25.94,25.94,0,1,0,18.33,44.28l7.81,7.8A36.74,36.74,0,0,1,725,288.85Z"/></g><g id="_Grupo_6" data-name="&lt;Grupo&gt;"><path id="_Trazado_compuesto_3" data-name="&lt;Trazado compuesto&gt;" class="cls-9" d="M836.71,288.85a37,37,0,1,1,37-37A37,37,0,0,1,836.71,288.85Zm0-62.9a25.94,25.94,0,1,0,25.91,25.94A26,26,0,0,0,836.71,225.94Z"/></g><g id="_Grupo_7" data-name="&lt;Grupo&gt;"><path id="_Trazado_7" data-name="&lt;Trazado&gt;" class="cls-9" d="M837,288.85a37,37,0,1,1,26.13-63.11l-7.81,7.8a25.94,25.94,0,1,0,0,36.68l7.81,7.8A36.73,36.73,0,0,1,837,288.85Z"/></g><g id="_Grupo_8" data-name="&lt;Grupo&gt;"><g id="_Grupo_9" data-name="&lt;Grupo&gt;"><polygon id="_Trazado_8" data-name="&lt;Trazado&gt;" class="cls-8" points="802.65 495.84 801.71 495.84 801.71 482.19 802.65 482.19 802.65 495.84 802.65 495.84"/></g><g id="_Grupo_10" data-name="&lt;Grupo&gt;"><polygon id="_Trazado_9" data-name="&lt;Trazado&gt;" class="cls-8" points="800.77 495.84 799.83 495.84 799.83 482.19 800.77 482.19 800.77 495.84 800.77 495.84"/></g><g id="_Grupo_11" data-name="&lt;Grupo&gt;"><g id="_Grupo_12" data-name="&lt;Grupo&gt;"><polygon id="_Trazado_10" data-name="&lt;Trazado&gt;" class="cls-8" points="671.63 503.07 671.16 502.26 682.75 495.57 682.75 482.19 683.68 482.19 683.68 496.11 671.63 503.07 671.63 503.07"/></g><g id="_Grupo_13" data-name="&lt;Grupo&gt;"><polygon id="_Trazado_11" data-name="&lt;Trazado&gt;" class="cls-8" points="718.98 503.21 706.92 496.25 707.39 495.43 718.98 502.12 730.57 495.43 731.03 496.25 718.98 503.21 718.98 503.21"/></g><g id="_Grupo_14" data-name="&lt;Grupo&gt;"><polygon id="_Trazado_12" data-name="&lt;Trazado&gt;" class="cls-8" points="742.77 503.21 730.72 496.25 731.19 495.43 742.77 502.12 754.12 495.57 754.12 482.46 742.54 475.77 743.01 474.96 755.06 481.92 755.06 496.11 742.77 503.21 742.77 503.21"/></g><g id="_Grupo_15" data-name="&lt;Grupo&gt;"><polygon id="_Trazado_13" data-name="&lt;Trazado&gt;" class="cls-8" points="766.57 503.21 754.27 496.11 754.27 481.92 766.33 474.96 766.8 475.77 755.21 482.46 755.21 495.57 766.57 502.12 778.15 495.43 778.62 496.25 766.57 503.21 766.57 503.21"/></g><g id="_Grupo_16" data-name="&lt;Grupo&gt;"><polygon id="_Trazado_14" data-name="&lt;Trazado&gt;" class="cls-8" points="635.66 523.63 623.61 516.68 624.08 515.86 635.66 522.55 647.02 516 647.02 502.89 635.43 496.2 635.9 495.39 647.96 502.35 647.96 516.54 635.66 523.63 635.66 523.63"/></g><g id="_Grupo_17" data-name="&lt;Grupo&gt;"><path id="_Trazado_compuesto_4" data-name="&lt;Trazado compuesto&gt;" class="cls-8" d="M659.46,523.64l-12.29-7.1V502.35l12.29-7.1,12.29,7.1v14.19l-12.29,7.1ZM648.11,516l11.35,6.55L670.81,516V502.89l-11.35-6.55-11.35,6.55V516Z"/></g><g id="_Grupo_18" data-name="&lt;Grupo&gt;"><g id="_Grupo_19" data-name="&lt;Grupo&gt;"><polygon id="_Trazado_15" data-name="&lt;Trazado&gt;" class="cls-8" points="649.44 503.93 648.97 503.12 659.22 497.19 659.69 498.01 649.44 503.93 649.44 503.93"/></g><g id="_Grupo_20" data-name="&lt;Grupo&gt;"><polygon id="_Trazado_16" data-name="&lt;Trazado&gt;" class="cls-8" points="659.22 521.69 648.97 515.77 649.44 514.96 659.69 520.88 659.22 521.69 659.22 521.69"/></g><g id="_Grupo_21" data-name="&lt;Grupo&gt;"><polygon id="_Trazado_17" data-name="&lt;Trazado&gt;" class="cls-8" points="670.18 515.37 669.24 515.37 669.24 503.52 670.18 503.52 670.18 515.37 670.18 515.37"/></g></g><g id="_Grupo_22" data-name="&lt;Grupo&gt;"><g id="_Grupo_23" data-name="&lt;Grupo&gt;"><polygon id="_Trazado_18" data-name="&lt;Trazado&gt;" class="cls-8" points="685.13 524.43 684.66 523.62 694.91 517.7 695.38 518.51 685.13 524.43 685.13 524.43"/></g><g id="_Grupo_24" data-name="&lt;Grupo&gt;"><polygon id="_Trazado_19" data-name="&lt;Trazado&gt;" class="cls-8" points="694.91 542.2 684.66 536.28 685.13 535.46 695.38 541.38 694.91 542.2 694.91 542.2"/></g><g id="_Grupo_25" data-name="&lt;Grupo&gt;"><polygon id="_Trazado_20" data-name="&lt;Trazado&gt;" class="cls-8" points="705.87 535.87 704.93 535.87 704.93 524.03 705.87 524.03 705.87 535.87 705.87 535.87"/></g></g><g id="_Grupo_26" data-name="&lt;Grupo&gt;"><g id="_Grupo_27" data-name="&lt;Grupo&gt;"><polygon id="_Trazado_21" data-name="&lt;Trazado&gt;" class="cls-8" points="744.61 504.09 744.14 503.27 754.4 497.35 754.87 498.17 744.61 504.09 744.61 504.09"/></g><g id="_Grupo_28" data-name="&lt;Grupo&gt;"><polygon id="_Trazado_22" data-name="&lt;Trazado&gt;" class="cls-8" points="754.4 521.85 744.14 515.93 744.61 515.11 754.87 521.03 754.4 521.85 754.4 521.85"/></g><g id="_Grupo_29" data-name="&lt;Grupo&gt;"><polygon id="_Trazado_23" data-name="&lt;Trazado&gt;" class="cls-8" points="765.36 515.52 764.42 515.52 764.42 503.68 765.36 503.68 765.36 515.52 765.36 515.52"/></g></g><g id="_Grupo_30" data-name="&lt;Grupo&gt;"><path id="_Trazado_compuesto_5" data-name="&lt;Trazado compuesto&gt;" class="cls-8" d="M683.25,523.64,671,516.54V502.35l12.29-7.1,12.29,7.1v14.19l-12.29,7.1ZM671.9,516l11.35,6.55L694.6,516V502.89l-11.35-6.55-11.35,6.55V516Z"/></g><g id="_Grupo_31" data-name="&lt;Grupo&gt;"><polygon id="_Trazado_24" data-name="&lt;Trazado&gt;" class="cls-8" points="707.04 523.63 694.75 516.54 694.75 502.62 695.69 502.62 695.69 516 707.04 522.55 718.4 516 718.4 502.89 706.81 496.2 707.28 495.39 719.34 502.35 719.34 516.54 707.04 523.63 707.04 523.63"/></g><g id="_Grupo_32" data-name="&lt;Grupo&gt;"><path id="_Trazado_compuesto_6" data-name="&lt;Trazado compuesto&gt;" class="cls-8" d="M730.84,523.64l-12.29-7.1V502.35l12.29-7.1,12.29,7.1v14.19l-12.29,7.1ZM719.49,516l11.35,6.55L742.19,516V502.89l-11.35-6.55-11.35,6.55V516Z"/></g><g id="_Grupo_33" data-name="&lt;Grupo&gt;"><path id="_Trazado_compuesto_7" data-name="&lt;Trazado compuesto&gt;" class="cls-8" d="M754.63,523.64l-12.29-7.1V502.35l12.29-7.1,12.29,7.1v14.19l-12.29,7.1ZM743.28,516l11.35,6.55L766,516V502.89l-11.35-6.55-11.35,6.55V516Z"/></g><g id="_Grupo_34" data-name="&lt;Grupo&gt;"><path id="_Trazado_compuesto_8" data-name="&lt;Trazado compuesto&gt;" class="cls-8" d="M778.42,523.64l-12.29-7.1V502.35l12.29-7.1,12.29,7.1v14.19l-12.29,7.1ZM767.07,516l11.35,6.55L789.77,516V502.89l-11.35-6.55-11.35,6.55V516Z"/></g><g id="_Grupo_35" data-name="&lt;Grupo&gt;"><polygon id="_Trazado_25" data-name="&lt;Trazado&gt;" class="cls-8" points="790.87 516.27 789.93 516.27 789.93 502.35 802.22 495.25 814.27 502.21 813.8 503.03 802.22 496.34 790.87 502.89 790.87 516.27 790.87 516.27"/></g><g id="_Grupo_36" data-name="&lt;Grupo&gt;"><polygon id="_Trazado_26" data-name="&lt;Trazado&gt;" class="cls-8" points="623.97 543.93 623.5 543.11 635.08 536.42 635.08 523.32 623.5 516.63 623.97 515.82 636.02 522.77 636.02 536.97 623.97 543.93 623.97 543.93"/></g><g id="_Grupo_37" data-name="&lt;Grupo&gt;"><polygon id="_Trazado_27" data-name="&lt;Trazado&gt;" class="cls-8" points="647.29 543.93 635.23 536.97 635.23 522.77 647.52 515.68 659.81 522.77 659.81 536.7 658.87 536.7 658.87 523.32 647.52 516.76 636.17 523.32 636.17 536.42 647.76 543.11 647.29 543.93 647.29 543.93"/></g><g id="_Grupo_38" data-name="&lt;Grupo&gt;"><path id="_Trazado_compuesto_9" data-name="&lt;Trazado compuesto&gt;" class="cls-8" d="M671.32,544.06,659,537V522.77l12.29-7.1,12.29,7.1V537l-12.29,7.1ZM660,536.42,671.32,543l11.35-6.55V523.32l-11.35-6.55L660,523.32v13.11Z"/></g><g id="_Grupo_39" data-name="&lt;Grupo&gt;"><path id="_Trazado_compuesto_10" data-name="&lt;Trazado compuesto&gt;" class="cls-8" d="M695.11,544.06,682.82,537V522.77l12.29-7.1,12.29,7.1V537l-12.29,7.1Zm-11.35-7.64L695.11,543l11.35-6.55V523.32l-11.35-6.55-11.35,6.55v13.11Z"/></g><g id="_Grupo_40" data-name="&lt;Grupo&gt;"><path id="_Trazado_compuesto_11" data-name="&lt;Trazado compuesto&gt;" class="cls-8" d="M718.9,544.06,706.61,537V522.77l12.29-7.1,12.29,7.1V537l-12.29,7.1Zm-11.35-7.64L718.9,543l11.35-6.55V523.32l-11.35-6.55-11.35,6.55v13.11Z"/></g><g id="_Grupo_41" data-name="&lt;Grupo&gt;"><path id="_Trazado_compuesto_12" data-name="&lt;Trazado compuesto&gt;" class="cls-8" d="M742.69,544.06,730.4,537V522.77l12.29-7.1,12.29,7.1V537l-12.29,7.1Zm-11.35-7.64L742.69,543,754,536.42V523.32l-11.35-6.55-11.35,6.55v13.11Z"/></g><g id="_Grupo_42" data-name="&lt;Grupo&gt;"><polygon id="_Trazado_28" data-name="&lt;Trazado&gt;" class="cls-8" points="766.25 543.93 754.2 536.97 754.2 522.77 766.49 515.68 778.78 522.77 778.78 536.7 777.84 536.7 777.84 523.32 766.49 516.76 755.14 523.32 755.14 536.42 766.72 543.11 766.25 543.93 766.25 543.93"/></g><g id="_Grupo_43" data-name="&lt;Grupo&gt;"><polygon id="_Trazado_29" data-name="&lt;Trazado&gt;" class="cls-8" points="778.93 536.7 777.99 536.7 777.99 522.77 790.05 515.82 790.52 516.63 778.93 523.32 778.93 536.7 778.93 536.7"/></g><g id="_Grupo_44" data-name="&lt;Grupo&gt;"><polygon id="_Trazado_30" data-name="&lt;Trazado&gt;" class="cls-8" points="647.17 543.88 635.59 537.19 624 543.88 623.53 543.07 635.59 536.11 647.64 543.07 647.17 543.88 647.17 543.88"/></g><g id="_Grupo_45" data-name="&lt;Grupo&gt;"><polygon id="_Trazado_31" data-name="&lt;Trazado&gt;" class="cls-8" points="659.38 564.49 647.32 557.53 647.79 556.72 659.38 563.41 670.73 556.85 670.73 543.74 659.14 537.06 659.62 536.24 671.67 543.2 671.67 557.39 659.38 564.49 659.38 564.49"/></g><g id="_Grupo_46" data-name="&lt;Grupo&gt;"><path id="_Trazado_compuesto_13" data-name="&lt;Trazado compuesto&gt;" class="cls-8" d="M683.17,564.49l-12.29-7.1V543.2l12.29-7.1,12.29,7.1v14.19l-12.29,7.1Zm-11.35-7.64,11.35,6.56,11.35-6.56V543.74l-11.35-6.55-11.35,6.55v13.11Z"/></g><g id="_Grupo_47" data-name="&lt;Grupo&gt;"><polygon id="_Trazado_32" data-name="&lt;Trazado&gt;" class="cls-8" points="719.26 557.12 718.32 557.12 718.32 543.74 706.97 537.19 695.62 543.74 695.62 557.12 694.68 557.12 694.68 543.2 706.97 536.11 719.26 543.2 719.26 557.12 719.26 557.12"/></g><g id="_Grupo_48" data-name="&lt;Grupo&gt;"><path id="_Trazado_compuesto_14" data-name="&lt;Trazado compuesto&gt;" class="cls-8" d="M730.76,564.49l-12.29-7.1V543.2l12.29-7.1,12.29,7.1v14.19l-12.29,7.1Zm-11.35-7.64,11.35,6.56,11.35-6.56V543.74l-11.35-6.55-11.35,6.55v13.11Z"/></g><g id="_Grupo_49" data-name="&lt;Grupo&gt;"><polygon id="_Trazado_33" data-name="&lt;Trazado&gt;" class="cls-8" points="766.84 557.12 765.9 557.12 765.9 543.74 754.55 537.19 743.2 543.74 743.2 557.12 742.26 557.12 742.26 543.2 754.55 536.11 766.84 543.2 766.84 557.12 766.84 557.12"/></g><g id="_Grupo_50" data-name="&lt;Grupo&gt;"><polygon id="_Trazado_34" data-name="&lt;Trazado&gt;" class="cls-8" points="659.89 577.55 658.95 577.55 658.95 563.63 671.24 556.53 683.29 563.5 682.82 564.31 671.24 557.62 659.89 564.17 659.89 577.55 659.89 577.55"/></g></g><g id="_Grupo_51" data-name="&lt;Grupo&gt;"><path id="_Trazado_compuesto_15" data-name="&lt;Trazado compuesto&gt;" class="cls-8" d="M627.33,496.84a2.76,2.76,0,0,1-1.15.21,2,2,0,0,1-2.14-2.21,2.16,2.16,0,0,1,2.27-2.28,2.35,2.35,0,0,1,1,.19l-.14.46a2,2,0,0,0-.87-.18,1.62,1.62,0,0,0-1.7,1.79,1.58,1.58,0,0,0,1.66,1.75,2.25,2.25,0,0,0,.92-.18Z"/><path id="_Trazado_compuesto_16" data-name="&lt;Trazado compuesto&gt;" class="cls-8" d="M628.6,492.63v1.82h2.1v-1.82h.57V497h-.57v-2h-2.1v2H628v-4.35Z"/></g><g id="_Grupo_52" data-name="&lt;Grupo&gt;"><path id="_Trazado_compuesto_17" data-name="&lt;Trazado compuesto&gt;" class="cls-8" d="M682.43,479.62a2.75,2.75,0,0,1-1.15.21,2,2,0,0,1-2.14-2.21,2.16,2.16,0,0,1,2.27-2.28,2.35,2.35,0,0,1,1,.19l-.14.46a2,2,0,0,0-.87-.18,1.62,1.62,0,0,0-1.7,1.79,1.58,1.58,0,0,0,1.66,1.75,2.25,2.25,0,0,0,.92-.18Z"/><path id="_Trazado_compuesto_18" data-name="&lt;Trazado compuesto&gt;" class="cls-8" d="M683.7,475.41v1.82h2.1v-1.82h.57v4.35h-.57v-2h-2.1v2h-.57v-4.35Z"/><path id="_Trazado_compuesto_19" data-name="&lt;Trazado compuesto&gt;" class="cls-8" d="M687,480.7v-.2l.26-.25c.62-.59.91-.91.91-1.28a.43.43,0,0,0-.48-.48.83.83,0,0,0-.52.21l-.1-.23a1.08,1.08,0,0,1,.69-.25.69.69,0,0,1,.75.71c0,.45-.33.81-.84,1.31l-.19.18h1.09v.27Z"/></g><g id="_Grupo_53" data-name="&lt;Grupo&gt;"><path id="_Trazado_compuesto_20" data-name="&lt;Trazado compuesto&gt;" class="cls-8" d="M659.58,585.44a2.77,2.77,0,0,1-1.15.21,2,2,0,0,1-2.14-2.21,2.16,2.16,0,0,1,2.27-2.28,2.36,2.36,0,0,1,1,.19l-.14.46a2,2,0,0,0-.87-.18,1.62,1.62,0,0,0-1.7,1.79,1.57,1.57,0,0,0,1.66,1.75,2.24,2.24,0,0,0,.92-.18Z"/><path id="_Trazado_compuesto_21" data-name="&lt;Trazado compuesto&gt;" class="cls-8" d="M660.26,581h.57v4.58h-.57Z"/></g><g id="_Grupo_54" data-name="&lt;Grupo&gt;"><path id="_Trazado_compuesto_22" data-name="&lt;Trazado compuesto&gt;" class="cls-8" d="M803.34,477.85a2,2,0,0,1-2,2.29,2,2,0,0,1-2-2.21,2.06,2.06,0,0,1,2-2.28A2,2,0,0,1,803.34,477.85Zm-3.38.06c0,.94.5,1.77,1.39,1.77s1.39-.82,1.39-1.81-.45-1.77-1.39-1.77S800,477,800,477.92Z"/></g><g id="_Grupo_55" data-name="&lt;Grupo&gt;"><path id="_Trazado_compuesto_23" data-name="&lt;Trazado compuesto&gt;" class="cls-8" d="M617.06,544.54a2,2,0,0,1-2,2.29,2,2,0,0,1-2-2.21,2.06,2.06,0,0,1,2-2.28A2,2,0,0,1,617.06,544.54Zm-3.38.06c0,.94.5,1.77,1.39,1.77s1.39-.82,1.39-1.81-.45-1.77-1.39-1.77S613.68,543.65,613.68,544.6Z"/><path id="_Trazado_compuesto_24" data-name="&lt;Trazado compuesto&gt;" class="cls-8" d="M618.34,542.41v1.82h2.1v-1.82H621v4.35h-.57v-2h-2.1v2h-.57v-4.35Z"/></g></g><g id="_Grupo_56" data-name="&lt;Grupo&gt;"><circle id="_Trazado_35" data-name="&lt;Trazado&gt;" class="cls-10" cx="386.05" cy="343.67" r="118.43"/><g id="_Recortar_grupo_" data-name="&lt;Recortar grupo&gt;"><g class="cls-11"><g id="_Grupo_57" data-name="&lt;Grupo&gt;"><path id="_Trazado_36" data-name="&lt;Trazado&gt;" class="cls-12" d="M313.9,430.19H325.6l15.83-11.87h88.64l15.83,11.87h11.86a48.09,48.09,0,0,1,47.95,47.95v14H266v-14a48.09,48.09,0,0,1,47.95-47.95Z"/><path id="_Trazado_37" data-name="&lt;Trazado&gt;" class="cls-12" d="M352.38,460.09l-4.7-17.48c7.59,30.78,68.52,30.78,76.11,0l-4.7,17.48v32.06H352.38V460.09Z"/><path id="_Trazado_38" data-name="&lt;Trazado&gt;" class="cls-12" d="M419.1,460.09l11-41.77,15.83,11.87h11.86a48.09,48.09,0,0,1,47.95,47.95v14H419.1V460.09Z"/><path id="_Trazado_39" data-name="&lt;Trazado&gt;" class="cls-12" d="M385.82,465.7c17.1,0,34.18-7.72,38-23.08l-4.7,17.48v32.06H385.82V465.7Z"/><path id="_Trazado_40" data-name="&lt;Trazado&gt;" class="cls-12" d="M346.9,407.41h0a43.48,43.48,0,0,0,77.68.23V436c0,39.54-77.68,39.54-77.68,0V407.41Z"/><polygon id="_Trazado_41" data-name="&lt;Trazado&gt;" class="cls-12" points="341.42 418.32 325.6 430.19 328.34 473.8 352.38 460.1 341.42 418.32 341.42 418.32"/><polygon id="_Trazado_42" data-name="&lt;Trazado&gt;" class="cls-12" points="430.06 418.32 445.89 430.19 443.15 473.8 419.1 460.1 430.06 418.32 430.06 418.32"/><path id="_Trazado_43" data-name="&lt;Trazado&gt;" class="cls-12" d="M334,387.9V320.2c0-31.9,6.82-57.9,38.72-57.9h26.14c31.9,0,38.72,26,38.72,57.9q0,33.85,0,67.7c0,14.62,12.14,20.91-6.11,20.51a23.64,23.64,0,0,1-6.54-1.52,42.92,42.92,0,0,0,4.43-19q0-33.85,0-67.7a30.58,30.58,0,0,0-30.49-30.49H372.76a30.58,30.58,0,0,0-30.49,30.49v67.7a43.16,43.16,0,0,0,4.47,19.15,40.49,40.49,0,0,1-11.81,1.21c-8.32-.42-.88-5.71-.88-20.37Z"/><path id="_Trazado_44" data-name="&lt;Trazado&gt;" class="cls-12" d="M385.82,262.3h13.07c31.9,0,38.72,26,38.72,57.9q0,33.85,0,67.7c0,14.62,12.14,20.91-6.11,20.51a23.64,23.64,0,0,1-6.54-1.52,42.92,42.92,0,0,0,4.43-19q0-33.85,0-67.7a30.58,30.58,0,0,0-30.49-30.49H385.82V262.3Z"/><path id="_Trazado_45" data-name="&lt;Trazado&gt;" class="cls-12" d="M342.26,387.9a43.56,43.56,0,1,0,87.13,0q0-33.85,0-67.7a30.58,30.58,0,0,0-30.49-30.49H372.76a30.58,30.58,0,0,0-30.49,30.49v67.7Z"/><path id="_Trazado_46" data-name="&lt;Trazado&gt;" class="cls-12" d="M342.26,342.62h-4.38c-3.62,0-7.14,3-6.58,6.58l2.28,14.53c1,6.35-.66,15.62,8.69,13.63V342.62Z"/><path id="_Trazado_compuesto_25" data-name="&lt;Trazado compuesto&gt;" class="cls-12" d="M342.26,387.9a43.56,43.56,0,1,0,87.13,0V377.36l-16.16,18.15-16.44-11H374.86l-16.16,11-16.44-18.15V387.9ZM372,403.81h27.8l-5.48-5.48H377.53L372,403.81Z"/><path id="_Trazado_47" data-name="&lt;Trazado&gt;" class="cls-12" d="M385.82,428.72a44,44,0,0,0,43.56-43.56v-7.8l-16.16,18.15-16.44-11h-11v13.78h8.54l5.48,5.48h-14v24.92Z"/></g></g></g></g><rect id="_Rectángulo_3" data-name="&lt;Rectángulo&gt;" class="cls-3" x="565.4" y="300.25" width="89.47" height="15.87"/><rect id="_Rectángulo_4" data-name="&lt;Rectángulo&gt;" class="cls-8" x="682.3" y="300.25" width="89.47" height="15.87"/><rect id="_Rectángulo_5" data-name="&lt;Rectángulo&gt;" class="cls-9" x="793.11" y="299.54" width="89.47" height="15.87"/><g id="_Grupo_58" data-name="&lt;Grupo&gt;"><rect id="_Trazado_48" data-name="&lt;Trazado&gt;" class="cls-13" x="617.48" y="400.31" width="212.28" height="0.77"/></g><g id="_Grupo_59" data-name="&lt;Grupo&gt;"><circle id="_Trazado_49" data-name="&lt;Trazado&gt;" class="cls-13" cx="833.62" cy="400.7" r="3.86"/><path id="_Trazado_compuesto_26" data-name="&lt;Trazado compuesto&gt;" class="cls-13" d="M833.62,404.95a4.25,4.25,0,1,1,4.25-4.25A4.26,4.26,0,0,1,833.62,404.95Zm1.79-7.28a3.51,3.51,0,0,0-5.14,4,3.43,3.43,0,0,0,2.41,2.41,3.51,3.51,0,0,0,4-5.14A2.89,2.89,0,0,0,835.41,397.67Z"/></g><g id="_Grupo_60" data-name="&lt;Grupo&gt;"><rect id="_Trazado_50" data-name="&lt;Trazado&gt;" class="cls-13" x="651.65" y="404.56" width="0.77" height="27.04"/></g><g id="_Grupo_61" data-name="&lt;Grupo&gt;"><circle id="_Trazado_51" data-name="&lt;Trazado&gt;" class="cls-13" cx="652.04" cy="400.7" r="3.86"/></g><g id="_Grupo_62" data-name="&lt;Grupo&gt;"><circle id="_Trazado_52" data-name="&lt;Trazado&gt;" class="cls-14" cx="652.04" cy="431.61" r="11.59"/></g><g id="_Grupo_63" data-name="&lt;Grupo&gt;"><path id="_Trazado_compuesto_27" data-name="&lt;Trazado compuesto&gt;" class="cls-15" d="M648.41,430.15H647l.84-2.44h1Z"/><path id="_Trazado_compuesto_28" data-name="&lt;Trazado compuesto&gt;" class="cls-15" d="M649.3,434.09h1.14V429h-1.18v-1.3h2.6v6.36h1v1.21h-3.6Z"/><path id="_Trazado_compuesto_29" data-name="&lt;Trazado compuesto&gt;" class="cls-15" d="M653.29,434.09h1.14V429h-1.18v-1.3h2.6v6.36h1v1.21h-3.6Z"/></g><g id="_Grupo_64" data-name="&lt;Grupo&gt;"><rect id="_Trazado_53" data-name="&lt;Trazado&gt;" class="cls-13" x="744.38" y="404.56" width="0.77" height="27.04"/></g><g id="_Grupo_65" data-name="&lt;Grupo&gt;"><rect id="_Trazado_54" data-name="&lt;Trazado&gt;" class="cls-13" x="698.02" y="369.79" width="0.77" height="30.91"/></g><g id="_Grupo_66" data-name="&lt;Grupo&gt;"><circle id="_Trazado_55" data-name="&lt;Trazado&gt;" class="cls-13" cx="698.4" cy="400.7" r="3.86"/></g><g id="_Grupo_67" data-name="&lt;Grupo&gt;"><circle id="_Trazado_56" data-name="&lt;Trazado&gt;" class="cls-3" cx="698.4" cy="369.79" r="11.59"/></g><g id="_Grupo_68" data-name="&lt;Grupo&gt;"><circle id="_Trazado_57" data-name="&lt;Trazado&gt;" class="cls-13" cx="744.76" cy="400.7" r="3.86"/></g><g id="_Grupo_69" data-name="&lt;Grupo&gt;"><circle id="_Trazado_58" data-name="&lt;Trazado&gt;" class="cls-8" cx="744.76" cy="431.61" r="11.59"/></g><g id="_Grupo_70" data-name="&lt;Grupo&gt;"><rect id="_Trazado_59" data-name="&lt;Trazado&gt;" class="cls-13" x="790.74" y="369.79" width="0.77" height="30.91"/></g><g id="_Grupo_71" data-name="&lt;Grupo&gt;"><circle id="_Trazado_60" data-name="&lt;Trazado&gt;" class="cls-13" cx="791.12" cy="400.7" r="3.86"/></g><g id="_Grupo_72" data-name="&lt;Grupo&gt;"><circle id="_Trazado_61" data-name="&lt;Trazado&gt;" class="cls-9" cx="791.12" cy="369.79" r="11.59"/></g><g id="_Grupo_73" data-name="&lt;Grupo&gt;"><path id="_Trazado_compuesto_30" data-name="&lt;Trazado compuesto&gt;" class="cls-15" d="M693.17,368.34h-1.36l.84-2.44h1Z"/><path id="_Trazado_compuesto_31" data-name="&lt;Trazado compuesto&gt;" class="cls-15" d="M694.06,372.28h1.14v-5.07H694v-1.3h2.6v6.36h1v1.21h-3.6Z"/><path id="_Trazado_compuesto_32" data-name="&lt;Trazado compuesto&gt;" class="cls-15" d="M698.49,368.11c0-1.6,1.53-2.29,2.92-2.29s3.16.62,3.16,2.41-1.45,2.29-3,2.29c-.63,0-1.65.16-1.65,1v.65h4.71v1.33h-6.14v-2c0-1.74,1.58-2.26,3.07-2.26.57,0,1.62-.1,1.62-1s-.75-1.21-1.72-1.21c-.75,0-1.52.38-1.53,1.06Z"/></g><g id="_Grupo_74" data-name="&lt;Grupo&gt;"><path id="_Trazado_compuesto_33" data-name="&lt;Trazado compuesto&gt;" class="cls-15" d="M785.76,368.34H784.4l.84-2.44h1Z"/><path id="_Trazado_compuesto_34" data-name="&lt;Trazado compuesto&gt;" class="cls-15" d="M786.65,372.28h1.14v-5.07H786.6v-1.3h2.6v6.36h1.05v1.21h-3.6Z"/><path id="_Trazado_compuesto_35" data-name="&lt;Trazado compuesto&gt;" class="cls-15" d="M796.58,365.92v4.74h.89v1.39h-.89v1.44h-1.41v-1.44h-4L791,370.6l3.41-4.68Zm-1.41,4.74v-3.51l-2.56,3.51Z"/></g><g id="_Grupo_75" data-name="&lt;Grupo&gt;"><path id="_Trazado_compuesto_36" data-name="&lt;Trazado compuesto&gt;" class="cls-15" d="M739.48,430.15h-1.36l.84-2.44h1Z"/><path id="_Trazado_compuesto_37" data-name="&lt;Trazado compuesto&gt;" class="cls-15" d="M740.37,434.09h1.14V429h-1.18v-1.3h2.6v6.36h1v1.21h-3.6Z"/><path id="_Trazado_compuesto_38" data-name="&lt;Trazado compuesto&gt;" class="cls-15" d="M746.61,432v-1.17h1.09c.77,0,1.58-.21,1.59-.91,0-.43-.35-1-1.56-1-.67,0-1.58.24-1.58.93h-1.43c0-1.63,1.62-2.23,3-2.23s3,.69,3,2.31a1.6,1.6,0,0,1-1,1.49,1.8,1.8,0,0,1,1.23,1.59c0,1.85-1.74,2.4-3.2,2.4s-3.08-.61-3.1-2.33H746c0,.78,1.05,1.05,1.67,1.05s1.69-.3,1.69-1.12c0-.45-.25-1-1.61-1Z"/></g><rect id="_Rectángulo_6" data-name="&lt;Rectángulo&gt;" class="cls-13" x="685.77" y="411.9" width="24.15" height="6.41"/><rect id="_Rectángulo_7" data-name="&lt;Rectángulo&gt;" class="cls-13" x="778.22" y="411.9" width="24.15" height="6.41"/><rect id="_Rectángulo_8" data-name="&lt;Rectángulo&gt;" class="cls-13" x="732.56" y="381.72" width="24.15" height="6.41"/><rect id="_Rectángulo_9" data-name="&lt;Rectángulo&gt;" class="cls-13" x="638.93" y="381.72" width="24.15" height="6.41"/><g id="_Grupo_76" data-name="&lt;Grupo&gt;"><circle id="_Trazado_62" data-name="&lt;Trazado&gt;" class="cls-13" cx="616.66" cy="401.16" r="3.86"/></g><path class="cls-8" d="M355.59,362.3c-2.19-5.6-4.14-10.72-4.14-20.71,0-7.8,3.41-14.86,14.61-20.95l13.16-7.07c4.38-2.44,5.84-3.9,5.84-7.07s-2.19-4.87-6.82-4.87c-9.25,0-24.84,5.36-32.89,10.48l-12.43-42.39a122,122,0,0,1,53.59-11.94c34.11,0,52.62,19.25,52.62,45.07,0,20.71-9.26,30.94-20.71,36.54l-13.89,6.82c-4.38,2.19-6.58,4.63-6.58,9.75a31.92,31.92,0,0,0,.73,6.33ZM377,372.78c18.76,0,30,10.72,30,28.5,0,18-11.21,28.26-30,28.26-19,0-29.72-10.23-29.72-28.26C347.31,383.5,358,372.78,377,372.78Z"/><path class="cls-3" d="M593.48,252.85a7.2,7.2,0,0,1-.61-3c0-1.14.5-2.18,2.14-3.07l1.93-1c.64-.36.86-.57.86-1s-.32-.71-1-.71a11.25,11.25,0,0,0-4.82,1.54l-1.82-6.22a17.89,17.89,0,0,1,7.86-1.75c5,0,7.72,2.82,7.72,6.61,0,3-1.36,4.54-3,5.36l-2,1a1.43,1.43,0,0,0-1,1.43,4.68,4.68,0,0,0,.11.93Zm3.14,1.54c2.75,0,4.39,1.57,4.39,4.18s-1.64,4.14-4.39,4.14-4.36-1.5-4.36-4.14S593.84,254.39,596.62,254.39Z"/><path class="cls-8" d="M711,251.85a7.2,7.2,0,0,1-.61-3c0-1.14.5-2.18,2.14-3.07l1.93-1c.64-.36.86-.57.86-1s-.32-.71-1-.71a11.25,11.25,0,0,0-4.82,1.54l-1.82-6.22a17.89,17.89,0,0,1,7.86-1.75c5,0,7.72,2.82,7.72,6.61,0,3-1.36,4.54-3,5.36l-2,1a1.43,1.43,0,0,0-1,1.43,4.68,4.68,0,0,0,.11.93Zm3.14,1.54c2.75,0,4.39,1.57,4.39,4.18s-1.64,4.14-4.39,4.14-4.36-1.5-4.36-4.14S711.4,253.39,714.18,253.39Z"/><path class="cls-3" d="M612,242.62a4.14,4.14,0,1,1-4.24,4.16A4.11,4.11,0,0,1,612,242.62Zm0,5.61a1.47,1.47,0,0,0,0-2.94,1.47,1.47,0,0,0,0,2.94Zm8-5.4h2.19v.32l-7.89,14.25h-2.23v-.34Zm2.49,6.51a4.14,4.14,0,1,1-4.24,4.16A4.11,4.11,0,0,1,622.51,249.35Zm0,5.61a1.47,1.47,0,0,0,0-2.94,1.47,1.47,0,0,0,0,2.94Z"/><path class="cls-8" d="M730.55,242.62a4.14,4.14,0,1,1-4.24,4.16A4.11,4.11,0,0,1,730.55,242.62Zm0,5.61a1.47,1.47,0,0,0,0-2.94,1.47,1.47,0,0,0,0,2.94Zm8-5.4h2.19v.32l-7.89,14.25h-2.23v-.34Zm2.49,6.51a4.14,4.14,0,1,1-4.24,4.16A4.11,4.11,0,0,1,741.07,249.35Zm0,5.61a1.47,1.47,0,0,0,0-2.94,1.47,1.47,0,0,0,0,2.94Z"/><path class="cls-9" d="M823.57,251.85a7.2,7.2,0,0,1-.61-3c0-1.14.5-2.18,2.14-3.07l1.93-1c.64-.36.86-.57.86-1s-.32-.71-1-.71a11.25,11.25,0,0,0-4.82,1.54l-1.82-6.22a17.89,17.89,0,0,1,7.86-1.75c5,0,7.72,2.82,7.72,6.61,0,3-1.36,4.54-3,5.36l-2,1a1.43,1.43,0,0,0-1,1.43,4.68,4.68,0,0,0,.11.93Zm3.14,1.54c2.75,0,4.39,1.57,4.39,4.18s-1.64,4.14-4.39,4.14-4.36-1.5-4.36-4.14S823.93,253.39,826.72,253.39Z"/><path class="cls-9" d="M843.08,242.62a4.14,4.14,0,1,1-4.24,4.16A4.11,4.11,0,0,1,843.08,242.62Zm0,5.61a1.47,1.47,0,0,0,0-2.94,1.47,1.47,0,0,0,0,2.94Zm8-5.4h2.19v.32l-7.89,14.25h-2.23v-.34Zm2.49,6.51a4.14,4.14,0,1,1-4.24,4.16A4.11,4.11,0,0,1,853.6,249.35Zm0,5.61a1.47,1.47,0,0,0,0-2.94,1.47,1.47,0,0,0,0,2.94Z"/><polygon class="cls-16" points="551.21 2176 453.25 2176 453.25 1882.12 572.98 1882.12 551.21 2176"/><polygon class="cls-16" points="665.5 2176 572.98 2176 564.82 1886.2 678.76 1882.12 665.5 2176"/><ellipse id="_Trazado_63" data-name="&lt;Trazado&gt;" class="cls-17" cx="557.05" cy="1338.71" rx="115.87" ry="93.14"/><polygon id="_Trazado_64" data-name="&lt;Trazado&gt;" class="cls-18" points="642.12 1368.46 642.12 1329.38 490.25 1321.99 493.15 1375.23 501.23 1428.58 642.12 1416.97 642.12 1368.46"/><path id="_Trazado_65" data-name="&lt;Trazado&gt;" class="cls-19" d="M693.84,1426.27c2-35-9.39-50.14-5.6-48.24,19,9.48,62.54,53.06,63.63,98.57,1.7,70.66.58,110.56.48,133-.07,16.13-10.67,29.66-24.71,31.59l-8.54,1.17a20.77,20.77,0,0,1-4.16.22c-18.6-1.21-33.41-18.47-34-39.79a33.09,33.09,0,0,1,.11-3.35Z"/><circle id="_Trazado_66" data-name="&lt;Trazado&gt;" class="cls-18" cx="576.17" cy="1107.23" r="231.25"/><path id="_Trazado_67" data-name="&lt;Trazado&gt;" class="cls-20" d="M727.59,1918.49l-10.28-513.91s-13.73-27-57.63-38.6c-14-3.69-17.25,0-17.25,0s-22.64,34.31-79.77,34.31-73.3-25.42-73.3-25.42-24.79-15.25-62.52,17.79-20.48,521.66-20.48,521.66Z"/><path id="_Trazado_68" data-name="&lt;Trazado&gt;" class="cls-21" d="M524.94,1332.6c56.32,13.21,115.88-3.29,115.88-3.29v19c-46.44,14.83-91.12,3.43-115.88-6.35"/><path id="_Trazado_69" data-name="&lt;Trazado&gt;" class="cls-17" d="M771.62,1230.21c34.11-43.59,58.75-111.81,58.58-162.78-.24-72.75-10.5-259.34-241-291.57-75.25-10.52-123.47,33.47-123.47,33.47s-62.07-7.44-112.3,59.78-22,68.7-22,68.7-31.09,36.49-29.26,67.68-2.28,85.2,13.23,135.49c12.94,41.94,35.63,78.49,40.8,86.53a8.66,8.66,0,0,0,2.69,2.66l39.4,24.69.17.23s-33.16-54.12-38.07-98.77c-2.14-19.49,20.39-58.16,37.19-63.23s85.17-33.88,94.94-68.39,8.71-44.57,8.71-44.57,31.26,33.09,53.91,39.22,77.78,10.13,120.65,31,63.61,37.78,63.61,37.78l19,13.27c49.27,5.69,36,56.85,11.37,130.76"/><path id="_Trazado_70" data-name="&lt;Trazado&gt;" class="cls-22" d="M424.1,1390.95s33.25-2.91,46.72,105.26c2.51,20.17,0,44.91,0,44.91l14.59-169S459.54,1361.39,424.1,1390.95Z"/><g id="_Grupo_77" data-name="&lt;Grupo&gt;"><path class="cls-23" d="M424.1,1390.95a11.61,11.61,0,0,1,7.36,1.32,26.26,26.26,0,0,1,6.16,4.46,57.13,57.13,0,0,1,9.12,12.15c5,8.83,8.58,18.38,11.69,28,.74,2.42,1.43,4.85,2.14,7.28l1.93,7.34,1.77,7.38,1.58,7.42c2,9.91,3.63,19.89,5,29.91-.93-5-1.72-10-2.73-14.91s-2-9.91-3-14.84c-2.15-9.86-4.57-19.67-7.62-29.28a152.35,152.35,0,0,0-11.4-27.93,56.84,56.84,0,0,0-8.79-12.18,25.89,25.89,0,0,0-5.94-4.57A11.76,11.76,0,0,0,424.1,1390.95Z"/></g><path id="_Trazado_71" data-name="&lt;Trazado&gt;" class="cls-24" d="M806.6,985.15c-12.2,13.51-35.83,8.65-79.84-10.83-17.81-7.88,72.8,30.53,36.74,59.43-16.28,13-69.68-13.74-69.68-13.74s20.36,38.52-10.63,34.18c0,0-46.39-23.11-118.46-31.76-24.39-2.93-61.65-40.72-61.65-40.72s2,39.19-22.4,65.7c-28.31,30.73-90,50.15-90,50.15l-24.64,32.22L378.6,962.39s-36.05,91.18-61.61,82.11-16.71-66.06,4.53-93.22c18.6-23.8-.47-8.56,2.34-28.19,5.2-36.31,70.65-122.11,141.86-113.75,0,0,56.16-55.73,163.62-27.6,0,0,119.55,25.88,165.74,122.89C825,967.56,806.6,985.15,806.6,985.15Z"/><path id="_Trazado_72" data-name="&lt;Trazado&gt;" class="cls-25" d="M545.42,1596.57a3.37,3.37,0,0,0,3.37,3.37"/><path class="cls-7" d="M548,1619.69H814.88a15.37,15.37,0,0,0,15.32-15.32V1435.84a15.37,15.37,0,0,0-15.32-15.32H548a15.37,15.37,0,0,0-15.32,15.32v168.53A15.37,15.37,0,0,0,548,1619.69Z"/><path id="_Trazado_73" data-name="&lt;Trazado&gt;" class="cls-18" d="M497.63,1561.72c14.18-15.07,71.94-29.65,99-24.21a3.29,3.29,0,0,1,.42,6.35c-10.62,3.61-22.19,4.44-32.61,8.81-.52.11-.49.11,0,0,11.9-2.19,25.47-5.2,38.18-5a3.29,3.29,0,0,1,1.06,6.36c-15,5.41-32.82,6.77-47.86,11.19,22,.09,32.31-3.41,47.1-2.35,3.24.23,3.18,5.34.08,6.29-1.59.48-3.19,1-4.83,1.39-59.83,14.4-17.41,5.32.71,6.43l.56,0a3.29,3.29,0,0,1,.54,6.5c-25.45,5.41-77.65,13.64-92,19.68a3.27,3.27,0,0,1-4.52-2.54c-1.79-12.27-3.56-25.45-6-37.68C497.54,1562.82,497.53,1561.82,497.63,1561.72Z"/><g id="_Grupo_78" data-name="&lt;Grupo&gt;"><path id="_Trazado_74" data-name="&lt;Trazado&gt;" class="cls-16" d="M499.15,1560.2s-21.05,5.74-48.65,25.23c0,0,51.14-36.09,2.44-164-31.42-82.5-68.44,25.16-68.19,77.93.16,32.48,1.09,171,61,144.73,51.28-22.5,60.69-40.78,60.69-40.78Z"/><g id="_Grupo_79" data-name="&lt;Grupo&gt;"><path class="cls-23" d="M425.16,1391.62a8.27,8.27,0,0,1,6.55-.24,17.4,17.4,0,0,1,5.73,3.5,45,45,0,0,1,8.32,10.56,103.81,103.81,0,0,1,6.08,12c1.79,4.12,3.4,8.32,4.86,12.57,5.81,17,9.88,34.57,13.39,52.17.88,4.41,1.7,8.82,2.49,13.24.41,2.21.72,4.44,1.09,6.66s.59,4.46.83,6.7a131,131,0,0,1,.09,27A93,93,0,0,1,468.1,1562a71,71,0,0,1-6.35,12,48.75,48.75,0,0,1-8.85,10.29l-.55-.74c3.51-2.51,7.17-4.79,10.89-6.95s7.52-4.18,11.36-6.1,7.72-3.78,11.68-5.45c2-.84,4-1.64,6-2.4,1-.38,2-.74,3-1.07.51-.16,1-.32,1.55-.46.26-.07.52-.13.79-.17a3.2,3.2,0,0,1,.4,0c.12,0,.32,0,.34.13,0-.15-.23-.12-.34-.12a3.12,3.12,0,0,0-.4.06c-.26.05-.52.12-.78.2-.51.15-1,.33-1.53.51-1,.36-2,.76-3,1.17-2,.82-3.94,1.69-5.89,2.59-3.89,1.8-7.77,3.64-11.57,5.62s-7.57,4-11.26,6.21-7.3,4.5-10.74,7l-.55-.74a48,48,0,0,0,8.6-10.1,74.11,74.11,0,0,0,6.26-11.8,92.1,92.1,0,0,0,6.51-25.9,130.13,130.13,0,0,0,0-26.8c-.23-2.23-.51-4.45-.8-6.67s-.66-4.43-1.06-6.64c-.78-4.42-1.58-8.83-2.44-13.24-3.45-17.6-7.46-35.14-13.19-52.14a137,137,0,0,0-10.68-24.64,44.78,44.78,0,0,0-8.18-10.59,17.3,17.3,0,0,0-5.66-3.53A8.24,8.24,0,0,0,425.16,1391.62Z"/></g></g><polygon class="cls-18" points="525.09 1547.99 499.15 1560.19 532.71 1520.53 532.71 1540.36 525.09 1547.99"/><path id="_Trazado_75" data-name="&lt;Trazado&gt;" class="cls-18" d="M497.74,1562.62c14.18-15.07,71.82-30.55,98.86-25.11a3.29,3.29,0,0,1,.42,6.35c-10.62,3.61-22.19,4.44-32.61,8.81-.52.11-.49.11,0,0,11.9-2.19,25.47-5.2,38.18-5a3.29,3.29,0,0,1,1.06,6.36c-15,5.41-32.82,6.77-47.86,11.19,22,.09,32.31-3.41,47.1-2.35,3.24.23,3.18,5.34.08,6.29-1.59.48-3.19,1-4.83,1.39-59.83,14.4-17.41,5.32.71,6.43l.56,0a3.29,3.29,0,0,1,.54,6.5c-25.45,5.41-77.65,13.64-92,19.68a3.27,3.27,0,0,1-4.52-2.54c-1.79-12.27-3.56-25.45-6-37.68C497.54,1562.82,497.65,1562.72,497.74,1562.62Z"/><g id="_Grupo_80" data-name="&lt;Grupo&gt;"><path id="_Trazado_76" data-name="&lt;Trazado&gt;" class="cls-16" d="M499.15,1560.2s-21.05,5.74-48.65,25.23c0,0,51.14-36.09,2.44-164-31.42-82.5-68.44,25.16-68.19,77.93.16,32.48,1.09,171,61,144.73,51.28-22.5,60.69-40.78,60.69-40.78Z"/><g id="_Grupo_81" data-name="&lt;Grupo&gt;"><path class="cls-23" d="M425.16,1391.62a8.27,8.27,0,0,1,6.55-.24,17.4,17.4,0,0,1,5.73,3.5,45,45,0,0,1,8.32,10.56,103.81,103.81,0,0,1,6.08,12c1.79,4.12,3.4,8.32,4.86,12.57,5.81,17,9.88,34.57,13.39,52.17.88,4.41,1.7,8.82,2.49,13.24.41,2.21.72,4.44,1.09,6.66s.59,4.46.83,6.7a131,131,0,0,1,.09,27A93,93,0,0,1,468.1,1562a71,71,0,0,1-6.35,12,48.75,48.75,0,0,1-8.85,10.29l-.55-.74c3.51-2.51,7.17-4.79,10.89-6.95s7.52-4.18,11.36-6.1,7.72-3.78,11.68-5.45c2-.84,4-1.64,6-2.4,1-.38,2-.74,3-1.07.51-.16,1-.32,1.55-.46.26-.07.52-.13.79-.17a3.2,3.2,0,0,1,.4,0c.12,0,.32,0,.34.13,0-.15-.23-.12-.34-.12a3.12,3.12,0,0,0-.4.06c-.26.05-.52.12-.78.2-.51.15-1,.33-1.53.51-1,.36-2,.76-3,1.17-2,.82-3.94,1.69-5.89,2.59-3.89,1.8-7.77,3.64-11.57,5.62s-7.57,4-11.26,6.21-7.3,4.5-10.74,7l-.55-.74a48,48,0,0,0,8.6-10.1,74.11,74.11,0,0,0,6.26-11.8,92.1,92.1,0,0,0,6.51-25.9,130.13,130.13,0,0,0,0-26.8c-.23-2.23-.51-4.45-.8-6.67s-.66-4.43-1.06-6.64c-.78-4.42-1.58-8.83-2.44-13.24-3.45-17.6-7.46-35.14-13.19-52.14a137,137,0,0,0-10.68-24.64,44.78,44.78,0,0,0-8.18-10.59,17.3,17.3,0,0,0-5.66-3.53A8.24,8.24,0,0,0,425.16,1391.62Z"/></g></g><g id="_Grupo_82" data-name="&lt;Grupo&gt;"><path class="cls-23" d="M400,1619.65a70.87,70.87,0,0,0,8.93,13.91,44.89,44.89,0,0,0,12.39,10.75,27.57,27.57,0,0,0,7.64,2.88,24.17,24.17,0,0,0,8.13.27,53.56,53.56,0,0,0,15.65-4.85,159.09,159.09,0,0,0,28-17.55q6.61-5,12.92-10.37c4.22-3.57,8.36-7.23,12.39-11a255.72,255.72,0,0,1-24.79,22.06c-4.38,3.39-8.89,6.63-13.54,9.64a112.32,112.32,0,0,1-14.55,8.09,53.35,53.35,0,0,1-16,4.8,25.69,25.69,0,0,1-8.36-.42,28.19,28.19,0,0,1-7.79-3,44.06,44.06,0,0,1-12.37-11A68.45,68.45,0,0,1,400,1619.65Z"/></g></svg>
