<svg xmlns="http://www.w3.org/2000/svg"
	 viewBox="0 0 1142 410.9">
<style type="text/css">
	.st0{fill:#4EB8A9;}
	.st1{fill:#E84E29;}
	.st2{fill:none;}
	.st3{font-family:'Metric-Bold';}
	.st4{font-size:45px;}
	.st5{letter-spacing:2;}
</style>
<path d="m119.1,327.8c-69.6,0 -117.3,-46.7 -117.3,-115.3s47.7,-115.4 117.3,-115.4c70.1,0 117.3,46.7 117.3,115.4s-47.2,115.3 -117.3,115.3m0,-155.3c-16.5,0 -26.3,16.1 -26.3,39.9c0,23.8 9.7,39.9 26.3,39.9c17,0 26.8,-16.1 26.8,-39.9c-0.1,-23.8 -9.8,-39.9 -26.8,-39.9" class="st0" id="XMLID_1742_"/>
<path d="m349.3,397.4l-92.5,0l0,-295.4l92.5,0l0,17c10.2,-11.2 31.6,-21.9 53.5,-21.9c62.8,0 95.9,51.6 95.9,115.4c0,63.8 -33.1,115.3 -95.9,115.3c-21.9,0 -43.3,-10.7 -53.5,-21.9l0,91.5zm0,-163.1c3.9,9.2 14.1,15.6 25.8,15.6c19.5,0 31.2,-16.1 31.2,-37.5c0,-21.4 -11.7,-37.5 -31.2,-37.5c-12.7,0 -21.9,6.3 -25.8,15.6l0,43.8z" class="st0" id="XMLID_1739_"/>
<rect height="316.4" width="92.5" class="st1" y="6.6" x="519.1" id="XMLID_763_"/>
<path d="m761.9,194.4c0,-12.7 -13.6,-23.8 -45.3,-23.8c-19,0 -42.3,4.9 -59.4,14.1l0,-71.1c20,-9.2 50.6,-16.5 83.7,-16.5c69.6,0 110,31.2 110,94.4l0,131.4l-89.1,0l0,-10.7c-7.3,7.3 -27.7,14.6 -51.1,14.6c-42.3,0 -79.3,-23.4 -79.3,-70.6c0,-43.3 37,-69.6 84.2,-69.6c17.5,0 37.5,5.4 46.2,11.7l0,-3.9l0.1,0zm0,55c-4.4,-6.3 -12.7,-10.7 -23.4,-10.7c-10.7,0 -21.4,4.9 -21.4,15.6c0,10.7 10.7,15.6 21.4,15.6c10.7,0 19,-4.4 23.4,-10.7l0,-9.8z" class="st1" id="XMLID_1735_"/>
<path d="m972.6,322.9l-92.5,0l0,-316.3l92.5,0l0,112.4c10.2,-11.2 31.6,-21.9 53.5,-21.9c62.8,0 95.9,51.6 95.9,115.4c0,63.8 -33.1,115.3 -95.9,115.3c-21.9,0 -43.3,-10.7 -53.5,-21.9l0,17zm0,-88.6c3.9,9.2 13.1,15.6 25.8,15.6c19.5,0 31.2,-16.1 31.2,-37.5c0,-21.4 -11.7,-37.5 -31.2,-37.5c-11.7,0 -21.9,6.3 -25.8,15.6l0,43.8z" class="st1" id="XMLID_1732_"/>
<text x="-80" y="-38" class="st0 st3 st4 st5" transform="matrix(1,0,0,1,445.0775,433.5091) " id="XMLID_41_">LABORATÓRIO DE OPORTUNIDADES</text>
</svg>
